<svg width="375" height="383" viewBox="0 0 375 383" fill="none" xmlns="http://www.w3.org/2000/svg">
<rect x="27.0752" y="172.742" width="140.799" height="96.0437" fill="white"/>
<rect x="23.584" y="284.627" width="146.617" height="96.0437" fill="white"/>
<rect x="192.311" y="286.608" width="146.617" height="96.0437" fill="white"/>
<rect x="0.312012" y="109.373" width="374.688" height="50.4972" fill="white"/>
<rect x="192.311" y="172.742" width="151.272" height="97.0338" fill="white"/>
<path d="M243.979 1.44775C176.838 1.44775 170.543 68.2983 175.788 101.724C124.033 9.12319 83.8957 19.811 70.2964 36.73C53.5109 102.095 125.471 118.436 163.549 118.436C101.536 128.835 75.5418 191.27 70.2964 221.188L96.5234 208.189L102.983 221.188C141.984 146.91 164.715 122.769 175.788 118.436C172.291 111.008 167.297 124.007 184.53 124.007C279.492 124.007 267.292 219.331 260.298 230.473L284.777 208.189L307.507 221.188V208.189C307.507 136.387 240.061 114.103 211.34 114.103C217.329 108.552 231.739 104.717 236.402 98.6289C271.955 52.2047 256.833 19.4279 243.979 1.44775Z" fill="white"/>
<path d="M208.429 98.6289C214.294 94.3358 206.633 118.468 211.34 114.103M307.507 221.188L284.777 208.189L260.298 230.473C267.292 219.331 279.492 124.007 184.53 124.007C167.297 124.007 172.291 111.008 175.788 118.436C164.715 122.769 141.984 146.91 102.983 221.188L96.5234 208.189L70.2964 221.188C75.5418 191.27 101.536 128.835 163.549 118.436C125.471 118.436 53.5109 102.095 70.2964 36.73C83.8957 19.811 124.033 9.12319 175.788 101.724C170.543 68.2983 176.838 1.44775 243.979 1.44775C256.833 19.4279 271.955 52.2047 236.402 98.6289C231.739 104.717 217.329 108.552 211.34 114.103M307.507 221.188C307.507 246.773 307.507 252.756 307.507 208.189M307.507 221.188V208.189M307.507 208.189C307.507 136.387 240.06 114.103 211.34 114.103" stroke="black"/>
</svg>
